<svg xmlns="http://www.w3.org/2000/svg" viewBox="0 0 512 512" xml:space="preserve"><path style="fill:#e07188" d="M66.783 0h155.826v222.609H66.783z"/><path style="fill:#797781" d="M289.391 0h155.826v222.609H289.391z"/><path style="fill:#88888f" d="M66.783 289.391h155.826V512H66.783z"/><path style="fill:#ededed" d="M289.391 289.391h155.826V512H289.391z"/><path style="fill:#d1e5f5" d="M144.696 133.565a22.12 22.12 0 0 0 15.741-6.519 22.1 22.1 0 0 0 6.52-15.742c0-12.275-9.986-22.261-22.261-22.261s-22.261 9.986-22.261 22.261 9.986 22.261 22.261 22.261m16.695 89.044H128v183.049H93.989l50.702 50.69 50.716-50.69h-34.016z"/><path style="fill:#b4d8f1" d="M384 405.658V222.609h-33.391v183.049h-34.012l50.703 50.69 50.715-50.69zm-22.864-243.647 50.69-50.702-50.69-50.716v34.016H222.609V128h138.527z"/></svg>