<svg xmlns="http://www.w3.org/2000/svg" width="512" height="512" viewBox="0 0 512 512" version="1.1">
	<path d="M 240 0.674 C 156.977 4.365, 71.908 59.814, 30.747 137.065 C 18.224 160.569, 10.322 183.229, 2.776 217.278 L 0.510 227.500 0.232 369.750 L -0.046 512 118.227 511.897 C 221.674 511.807, 235.265 511.626, 226.651 510.452 C 172.614 503.092, 129.704 484.807, 93.387 453.668 C 55.367 421.068, 30.908 381.313, 18.994 332.757 C 12.486 306.229, 11.543 297.993, 11.524 267.500 C 11.506 237.752, 11.720 235.690, 17.607 209 C 23.660 181.554, 37.644 147.797, 51.989 126 C 89.711 68.684, 151.785 27.785, 220 15.305 C 233.778 12.784, 275.126 12.812, 290.378 15.352 C 340.297 23.666, 388.983 49.433, 428.070 88.226 C 467.007 126.871, 487.513 169.499, 498.672 235 C 501.234 250.035, 501.230 287.166, 498.665 302.399 C 490.743 349.452, 473.183 390.650, 447.783 421.776 C 414.342 462.755, 369.896 490.765, 317.424 503.928 C 310.109 505.763, 283.689 510.353, 275 511.299 C 273.075 511.509, 300.344 511.752, 335.597 511.840 L 399.693 512 412.640 503.024 C 453.423 474.748, 483.622 440.472, 504.243 399.057 L 511.985 383.506 512.250 447.503 C 512.396 482.701, 512.571 448.500, 512.639 371.500 C 512.708 294.500, 512.458 232.850, 512.085 234.500 C 511.541 236.906, 511.267 236.076, 510.702 230.309 C 509.674 219.824, 505.316 199.167, 501.417 186.298 C 492.155 155.734, 475.712 123.825, 457.204 100.500 C 444.343 84.292, 420.557 61.818, 402.462 48.778 C 361.394 19.183, 321.090 4.289, 273.269 1.036 C 259.145 0.075, 254.597 0.025, 240 0.674 M 221.500 79.403 C 215.672 81.975, 214.521 84.317, 214.316 94.029 C 214.132 102.717, 212.825 107.241, 209.764 109.781 C 209.011 110.406, 204.403 112.326, 199.524 114.048 C 194.644 115.770, 188.331 118.489, 185.495 120.090 C 182.659 121.690, 179.609 123, 178.717 123 C 177.826 123, 175.745 121.036, 174.093 118.635 C 168.652 110.727, 159.593 108.688, 152.385 113.750 C 146.867 117.624, 116.621 148.837, 114.641 152.700 C 110.975 159.850, 113.328 167.856, 121.230 175.120 L 126.415 179.887 124.224 185.193 C 123.020 188.112, 120.908 193.820, 119.533 197.878 C 118.157 201.936, 116.520 205.874, 115.893 206.628 C 115.030 207.668, 111.446 208, 101.074 208 C 88.390 208, 87.017 208.187, 82.241 210.567 C 76.623 213.367, 72.093 217.937, 69.078 223.848 C 67.305 227.323, 67.122 230.264, 66.888 259.070 C 66.604 294.017, 66.538 293.596, 73.567 301.807 C 77.894 306.863, 84.261 310, 90.193 310 C 92.702 310, 95.215 310.562, 95.777 311.250 C 96.339 311.938, 97.981 317.423, 99.426 323.440 C 104.983 346.584, 119.607 370.071, 138.488 386.174 C 152.156 397.832, 150.736 397.426, 179.766 398 L 205.032 398.500 214.266 408.214 C 219.345 413.556, 224.767 418.394, 226.315 418.964 C 228.019 419.591, 240.682 420, 258.408 420 C 293.179 420, 292.138 420.292, 302.849 407.541 C 306.526 403.164, 310.652 399.271, 312.017 398.891 C 313.383 398.510, 323.500 398.145, 334.500 398.078 C 351.949 397.972, 355.042 397.710, 358.746 396.029 C 365.393 393.011, 371.800 388.234, 380.856 379.542 C 399.626 361.525, 411.627 340.254, 414.928 319.150 C 416.180 311.145, 417.147 310, 422.655 310 C 430.962 310, 438.808 304.879, 443.338 296.500 C 445.426 292.637, 445.500 291.401, 445.500 260.500 C 445.500 229.433, 445.436 228.380, 443.298 224.384 C 439.914 218.058, 436.658 214.681, 430.833 211.454 C 425.817 208.676, 424.668 208.470, 411.517 208 L 397.533 207.500 394.456 199 C 392.763 194.325, 390.394 188.305, 389.189 185.623 C 386.303 179.193, 386.385 178.569, 390.547 175.293 C 395.053 171.745, 397.582 167.587, 398.351 162.462 C 399.601 154.118, 398.161 151.902, 378.738 132.294 C 368.819 122.280, 359.240 113.392, 357.451 112.544 C 350.416 109.205, 342.637 111.619, 337.656 118.686 C 335.983 121.059, 333.911 123, 333.050 123 C 332.189 123, 329.238 121.792, 326.492 120.316 C 323.746 118.840, 317.023 115.802, 311.551 113.566 C 299.431 108.613, 297.926 106.678, 297.215 95.138 C 296.666 86.239, 295.130 82.660, 290.701 79.960 C 287.702 78.130, 285.517 78.010, 256 78.043 C 232.099 78.070, 223.776 78.398, 221.500 79.403 M 233.749 117.556 C 228.936 118.305, 220.314 120.485, 214.589 122.401 C 161.707 140.097, 126.907 185.754, 121.970 243.917 C 118.430 285.619, 133.199 323.157, 163.807 350.255 C 171.425 356.999, 179.971 362.848, 183.793 363.933 C 185.282 364.355, 197.037 364.481, 209.917 364.211 L 233.333 363.721 236.917 360.440 L 240.500 357.158 240.808 337.141 C 241.185 312.614, 241.131 312.455, 230.704 307.488 C 196.941 291.405, 183.502 251.571, 200.174 217 C 203.496 210.111, 205.905 206.872, 212.886 199.909 C 227.330 185.504, 243.255 179.236, 262.873 180.234 C 290.190 181.624, 312.446 198.787, 321.585 225.510 C 325.183 236.030, 326.076 253.170, 323.534 262.915 C 318.559 281.979, 306.338 296.574, 286.364 307.303 C 281.780 309.766, 278.018 312.533, 277.260 314 C 276.301 315.857, 276.037 321.732, 276.234 336.829 L 276.500 357.158 280.235 360.579 L 283.971 364 304.794 364 L 325.618 364 331.559 360.434 C 358.261 344.406, 377.634 319.023, 386.459 288.500 C 392.236 268.522, 392.528 241.508, 387.190 220.829 C 378.121 185.694, 358.697 158.058, 329.500 138.746 C 305.583 122.927, 282.457 115.897, 255 116.101 C 248.125 116.152, 238.562 116.807, 233.749 117.556 M 182.360 164.327 C 163.276 178.420, 147.475 204.582, 141.391 232.162 C 139.181 242.178, 139.162 262.333, 141.354 271.353 C 145.132 286.901, 151.770 299.539, 161.676 310.040 C 171.222 320.158, 185.617 328.783, 188.369 326.031 C 189.130 325.270, 186.255 321.962, 178.416 314.583 C 163.732 300.760, 155.367 288.567, 150.233 273.500 C 146.485 262.504, 145.696 255.828, 146.298 240.225 C 147.470 209.880, 157.109 189.778, 181.053 167.750 C 185.686 163.488, 189.194 160, 188.848 160 C 188.503 160, 185.583 161.947, 182.360 164.327 M 318.450 162.081 C 318.082 162.676, 319.188 164.813, 320.907 166.831 C 342.548 192.236, 352.264 211.377, 356.560 237.068 C 360.540 260.872, 354.838 290.576, 342.545 310.073 C 340.672 313.043, 339.344 315.678, 339.595 315.928 C 340.561 316.894, 351.391 305.140, 356.091 298.025 C 380.293 261.382, 374.241 208.701, 342.100 176.240 C 334.959 169.027, 323.749 161, 320.817 161 C 319.883 161, 318.817 161.487, 318.450 162.081 M 248.500 191.956 C 228.225 196.362, 211.874 212.261, 206.571 232.724 C 204.790 239.599, 204.543 253.303, 206.079 259.972 C 208.031 268.441, 212.924 276.940, 219.855 283.900 C 231.498 295.589, 244.689 300.607, 261.500 299.740 C 290.882 298.224, 313 275.994, 313 247.978 C 313 217.200, 290.532 192.782, 261 191.465 C 256.325 191.257, 250.700 191.477, 248.500 191.956 M 243.909 205.348 C 233.195 209.755, 225.552 216.750, 220.544 226.731 C 216.899 233.995, 215.705 240.169, 216.186 249.272 C 216.735 259.651, 220.693 268.305, 228.310 275.780 C 237.676 284.970, 248.266 288.640, 262.806 287.733 C 269.778 287.298, 272.411 286.607, 278.421 283.636 C 300.099 272.923, 308.485 249.749, 298.490 228.176 C 295.812 222.396, 288.566 214.177, 282.417 209.944 C 272.098 202.841, 254.971 200.797, 243.909 205.348 M 250 213.876 C 242.369 216.387, 234.999 222.212, 230.768 229.078 C 228.621 232.562, 226 241.630, 226 245.576 C 226 247.343, 226.905 251.718, 228.010 255.298 C 230.560 263.552, 236.812 270.778, 244.797 274.700 C 249.761 277.137, 251.667 277.500, 259.500 277.500 C 270.266 277.500, 275.823 275.260, 283.107 267.984 C 302.331 248.779, 287.671 214.614, 259.673 213.371 C 255.728 213.196, 251.375 213.423, 250 213.876 M 87.500 219.164 C 84.314 220.922, 79.943 225.268, 78.411 228.200 C 77.288 230.350, 77 237.027, 77 260.947 L 77 290.994 80.598 294.977 C 84.537 299.337, 88.805 300.986, 96.173 300.994 C 100.054 300.999, 101.368 301.522, 103.923 304.077 C 105.616 305.770, 107.189 308.132, 107.419 309.327 C 107.649 310.522, 108.572 315.525, 109.471 320.445 C 113.105 340.348, 122.735 356.743, 141.393 374.793 C 155.235 388.184, 154.697 388, 180.094 388 C 193.597 388, 202.759 388.434, 205.384 389.199 C 208.495 390.105, 211.823 392.749, 219.011 400.026 C 226.038 407.140, 229.401 409.830, 231.886 410.327 C 233.736 410.697, 245.881 410.990, 258.875 410.978 C 285.900 410.953, 288.085 410.459, 294.094 403.021 C 306.403 387.781, 304.237 388.636, 332.132 388.009 L 354.764 387.500 360.493 383.552 C 369.084 377.631, 380.258 366.786, 387.035 357.794 C 397.636 343.725, 406 323.205, 406 311.265 C 406 305.506, 411.699 301, 418.982 301 C 424.440 301, 429.016 298.958, 432.297 295.059 L 435 291.847 435 261.374 C 435 227.778, 435.087 228.305, 428.533 222 L 424.894 218.500 413.697 218.219 C 407.539 218.064, 402.006 218.289, 401.402 218.719 C 400.608 219.283, 400.662 221.856, 401.597 228 C 404.802 249.054, 402.646 279.356, 396.575 298.573 C 387.076 328.643, 362.235 358.411, 334.437 373.033 C 328.799 375.999, 328.791 376, 311.048 376 C 301.068 376, 291.961 376.466, 290.242 377.065 C 288.561 377.651, 284.863 380.801, 282.024 384.065 L 276.863 390 259.009 390 L 241.155 390 236.409 384.445 C 233.799 381.390, 230.726 378.352, 229.582 377.695 C 228.191 376.897, 219.201 376.334, 202.500 376 L 177.500 375.500 172 371.914 C 140.519 351.386, 117.785 317.187, 111.611 281.074 C 109.544 268.981, 109.512 245.567, 111.543 231.008 C 112.391 224.925, 112.815 219.509, 112.484 218.974 C 111.653 217.630, 89.982 217.795, 87.500 219.164 M 250.500 227.890 C 234.620 235.219, 235.669 257.534, 252.218 264.447 C 259.529 267.501, 268.456 265.786, 274.339 260.197 C 278.537 256.209, 280.161 252.411, 280.214 246.450 C 280.345 231.844, 264.023 221.649, 250.500 227.890 M 0.486 372.500 C 0.486 449.500, 0.605 480.852, 0.750 442.172 C 0.895 403.491, 0.895 340.491, 0.750 302.172 C 0.605 263.852, 0.486 295.500, 0.486 372.500 M 87.714 234.620 C 86.707 235.627, 86.851 277.217, 87.867 278.819 C 88.391 279.646, 90.159 280.019, 92.602 279.819 L 96.500 279.500 96.500 257 L 96.500 234.500 92.464 234.203 C 90.244 234.040, 88.106 234.227, 87.714 234.620 M 416.245 235.155 C 415.328 236.072, 415 242.151, 415 258.257 L 415 280.115 419.250 279.807 L 423.500 279.500 423.500 257 L 423.500 234.500 420.495 234.205 C 418.842 234.043, 416.930 234.470, 416.245 235.155 M 252.048 238.798 C 248.128 242.719, 247.922 247.566, 251.497 251.814 C 254.551 255.444, 258.107 256.450, 262.618 254.961 C 266.318 253.740, 269 249.791, 269 245.565 C 269 241.536, 264.214 236.972, 259.298 236.313 C 255.573 235.814, 254.751 236.095, 252.048 238.798" stroke="none" fill="white" fill-rule="evenodd"/>
</svg>